<svg width="40" height="40" viewBox="0 0 40 40" fill="none" xmlns="http://www.w3.org/2000/svg">
<path d="M20 2.22222C16.4839 2.22222 13.0468 3.26487 10.1232 5.21832C7.19967 7.17176 4.92105 9.94827 3.57549 13.1967C2.22993 16.4452 1.87787 20.0197 2.56383 23.4683C3.24979 26.9168 4.94296 30.0845 7.42923 32.5708C9.9155 35.0571 13.0832 36.7502 16.5317 37.4362C19.9803 38.1221 23.5548 37.7701 26.8033 36.4245C30.0517 35.079 32.8283 32.8003 34.7817 29.8768C36.7351 26.9533 37.7778 23.5161 37.7778 20C37.7778 15.285 35.9048 10.7632 32.5708 7.42921C29.2368 4.09523 24.715 2.22222 20 2.22222ZM31.6111 14.0333L17.0111 28.6222L8.3889 20C8.09422 19.7053 7.92867 19.3056 7.92867 18.8889C7.92867 18.4721 8.09422 18.0725 8.3889 17.7778C8.68359 17.4831 9.08327 17.3175 9.50002 17.3175C9.91676 17.3175 10.3164 17.4831 10.6111 17.7778L17.0334 24.2L29.4111 11.8333C29.557 11.6874 29.7303 11.5717 29.9209 11.4927C30.1116 11.4137 30.3159 11.3731 30.5222 11.3731C30.7286 11.3731 30.9329 11.4137 31.1236 11.4927C31.3142 11.5717 31.4874 11.6874 31.6334 11.8333C31.7793 11.9792 31.895 12.1525 31.974 12.3431C32.0529 12.5338 32.0936 12.7381 32.0936 12.9444C32.0936 13.1508 32.0529 13.3551 31.974 13.5458C31.895 13.7364 31.7793 13.9096 31.6334 14.0556L31.6111 14.0333Z" fill="#3E3AA9"/>
</svg>
