<svg width="31" height="27" viewBox="0 0 31 27" fill="none" xmlns="http://www.w3.org/2000/svg">
<path d="M2.375 2.5625V24.4375H28.625V6.9375H14.6031L10.2194 2.5625H2.375ZM1.28125 0.375H11.1206L15.5087 4.75H29.7188C30.0088 4.75 30.287 4.86523 30.4921 5.07035C30.6973 5.27547 30.8125 5.55367 30.8125 5.84375V25.5312C30.8125 25.8213 30.6973 26.0995 30.4921 26.3046C30.287 26.5098 30.0088 26.625 29.7188 26.625H1.28125C0.991169 26.625 0.71297 26.5098 0.507852 26.3046C0.302734 26.0995 0.1875 25.8213 0.1875 25.5312V1.46875C0.1875 1.17867 0.302734 0.90047 0.507852 0.695352C0.71297 0.490234 0.991169 0.375 1.28125 0.375V0.375ZM14.4062 14.5938V10.2188H16.5938V14.5938H20.9688V16.7812H16.5938V21.1562H14.4062V16.7812H10.0312V14.5938H14.4062Z" fill="#545560"/>
</svg>
