<svg width="110" height="111" viewBox="0 0 110 111" fill="none" xmlns="http://www.w3.org/2000/svg">
<path d="M107.873 0.900146C107.074 0.355168 106.137 0.0449222 105.17 0.00452061C104.203 -0.0358809 103.245 0.195175 102.402 0.671539L2.60654 57.442C0.899837 58.4313 -0.108356 60.2807 0.00928068 62.2378C0.126918 64.2002 1.34995 65.9282 3.16204 66.6873L36.1305 80.5328V104.942C36.1305 106.83 37.1621 108.563 38.8187 109.471C39.5923 109.895 40.431 110.11 41.0977 110.11C42.0689 110.11 43.0414 109.834 43.8913 109.29L67.8058 93.9219L89.0019 102.825C89.635 103.091 90.3147 103.228 91.0013 103.229C91.8783 103.229 92.7521 103.007 93.5347 102.563C94.2201 102.178 94.8081 101.641 95.2536 100.993C95.699 100.345 95.9902 99.6033 96.1046 98.8254L109.868 5.92025C110.346 3.96559 109.486 2.01565 107.873 0.900146ZM79.4211 25.6349L39.1837 70.5605L16.824 61.227L79.4211 25.6349ZM46.2591 95.4858V84.8705L56.2485 89.0663L46.2591 95.4858ZM87.0556 90.733L49.0763 74.7778L97.3784 21.1208L87.0556 90.733Z" fill="#B4B4B4"/>
</svg>
