<svg width="92" height="50" viewBox="0 0 92 50" fill="none" xmlns="http://www.w3.org/2000/svg">
<path d="M52.275 2.275C53.3315 1.26917 54.7374 0.713104 56.1961 0.724141C57.6548 0.735178 59.0522 1.31246 60.0933 2.33416C61.1345 3.35586 61.738 4.74208 61.7766 6.20031C61.8152 7.65853 61.2857 9.07471 60.3 10.15L30.375 47.575C29.8604 48.1292 29.2394 48.574 28.549 48.8827C27.8586 49.1915 27.113 49.3578 26.3569 49.3718C25.6007 49.3858 24.8495 49.2472 24.1482 48.9642C23.4468 48.6813 22.8097 48.2598 22.275 47.725L2.42999 27.88C1.87734 27.365 1.43407 26.744 1.12663 26.054C0.819194 25.364 0.65388 24.6192 0.640554 23.8639C0.627228 23.1087 0.766163 22.3584 1.04907 21.658C1.33198 20.9576 1.75306 20.3214 2.2872 19.7872C2.82134 19.2531 3.4576 18.832 4.15801 18.5491C4.85842 18.2662 5.60864 18.1272 6.36391 18.1406C7.11918 18.1539 7.86403 18.3192 8.55403 18.6266C9.24402 18.9341 9.86503 19.3773 10.38 19.93L26.085 35.6275L52.125 2.44C52.1717 2.3821 52.2218 2.327 52.275 2.275ZM45.375 40.825L52.275 47.725C52.8096 48.2586 53.4462 48.6791 54.1469 48.9614C54.8475 49.2437 55.5978 49.3819 56.3531 49.3679C57.1083 49.3539 57.853 49.188 58.5427 48.8799C59.2324 48.5719 59.853 48.1281 60.3675 47.575L90.3075 10.15C90.8453 9.61901 91.2706 8.98508 91.558 8.28607C91.8454 7.58705 91.989 6.83729 91.9802 6.08156C91.9714 5.32582 91.8103 4.57961 91.5067 3.88749C91.2031 3.19537 90.7631 2.57153 90.2131 2.05322C89.663 1.53492 89.0141 1.13278 88.3052 0.870822C87.5963 0.608865 86.8418 0.49246 86.0869 0.528562C85.332 0.564663 84.592 0.752531 83.9113 1.08094C83.2306 1.40935 82.6231 1.87157 82.125 2.44L56.0775 35.6275L52.44 31.9825L45.3675 40.825H45.375Z" fill="#B2B2B2"/>
</svg>
