<svg width="65" height="65" viewBox="0 0 65 65" fill="none" xmlns="http://www.w3.org/2000/svg">
<circle cx="32.5" cy="32.5" r="32.5" fill="white"/>
<path d="M45.125 30.2524H22.8875L29.6938 22.0774C30.012 21.6944 30.1651 21.2008 30.1194 20.705C30.0737 20.2092 29.8329 19.7519 29.45 19.4336C29.0671 19.1153 28.5734 18.9622 28.0776 19.0079C27.5818 19.0536 27.1245 19.2944 26.8062 19.6774L17.4313 30.9274C17.3682 31.0168 17.3118 31.1108 17.2625 31.2086C17.2625 31.3024 17.2625 31.3586 17.1313 31.4524C17.0463 31.6673 17.0018 31.8962 17 32.1274C17.0018 32.3585 17.0463 32.5874 17.1313 32.8024C17.1313 32.8961 17.1312 32.9523 17.2625 33.0461C17.3118 33.1439 17.3682 33.2379 17.4313 33.3274L26.8062 44.5774C26.9825 44.789 27.2033 44.9592 27.4528 45.0759C27.7024 45.1925 27.9745 45.2528 28.25 45.2524C28.6881 45.2532 29.1127 45.1006 29.45 44.8211C29.6399 44.6637 29.7968 44.4704 29.9118 44.2522C30.0269 44.0341 30.0977 43.7954 30.1204 43.5498C30.143 43.3042 30.117 43.0566 30.0438 42.8211C29.9706 42.5856 29.8516 42.3668 29.6938 42.1774L22.8875 34.0024H45.125C45.6223 34.0024 46.0992 33.8048 46.4508 33.4532C46.8025 33.1015 47 32.6246 47 32.1274C47 31.6301 46.8025 31.1532 46.4508 30.8015C46.0992 30.4499 45.6223 30.2524 45.125 30.2524Z" fill="black"/>
</svg>
