<svg width="28" height="29" viewBox="0 0 28 29" fill="none" xmlns="http://www.w3.org/2000/svg">
<path d="M21.265 23.381L22.165 22.487C26.329 22.623 26.393 22.477 26.576 22.049L27.72 19.264L27.805 19L27.712 18.769C27.663 18.647 27.512 18.283 24.912 15.804V14.5C27.912 11.61 27.848 11.462 27.677 11.039L26.538 8.225C26.367 7.803 26.302 7.638 22.168 7.751L21.268 6.821C21.3609 5.4511 21.3137 4.0753 21.127 2.715L21.011 2.452L18.037 1.152C17.599 0.952001 17.445 0.880001 14.637 3.938L13.375 3.919C10.484 0.833001 10.347 0.889 9.91401 1.064L7.14901 2.182C6.71601 2.357 6.56301 2.419 6.73101 6.619L5.83801 7.509C1.67601 7.373 1.61201 7.521 1.43101 7.947L0.285007 10.733L0.195007 11L0.289007 11.232C0.338007 11.352 0.483008 11.712 3.08901 14.194V15.494C0.0890076 18.384 0.154007 18.532 0.326007 18.956L1.46401 21.773C1.63801 22.204 1.70001 22.357 5.83301 22.249L6.73301 23.184C6.63972 24.5518 6.68562 25.9255 6.87001 27.284L6.98601 27.549L9.97901 28.857C10.414 29.039 10.565 29.104 13.365 26.057L14.627 26.073C17.522 29.163 17.67 29.103 18.093 28.932L20.852 27.817C21.288 27.644 21.44 27.583 21.265 23.381V23.381ZM9.40701 16.857C9.05806 15.9451 8.98622 14.9504 9.20049 13.9977C9.41476 13.0451 9.90561 12.177 10.6114 11.5023C11.3173 10.8276 12.2066 10.3764 13.1679 10.2052C14.1293 10.0341 15.1197 10.1507 16.015 10.5404C16.9103 10.9301 17.6706 11.5755 18.2004 12.3957C18.7302 13.2159 19.0061 14.1742 18.9932 15.1506C18.9804 16.1269 18.6795 17.0777 18.1284 17.8837C17.5772 18.6897 16.8002 19.3149 15.895 19.681C14.6599 20.164 13.2838 20.138 12.0679 19.6087C10.8519 19.0795 9.89516 18.09 9.40701 16.857V16.857Z" fill="#40535B"/>
</svg>
