<svg width="80" height="80" viewBox="0 0 80 80" fill="none" xmlns="http://www.w3.org/2000/svg">
<path d="M73.3334 63.3333V30C73.3334 28.2319 72.631 26.5362 71.3807 25.286C70.1305 24.0357 68.4348 23.3333 66.6667 23.3333H44.12C42.8817 23.3333 41.6679 22.9884 40.6146 22.3372C39.5613 21.686 38.7102 20.7544 38.1567 19.6467L35.1767 13.6867C34.6229 12.5784 33.7713 11.6465 32.7174 10.9953C31.6634 10.3441 30.4489 9.99942 29.21 10H13.3334C11.5652 10 9.86955 10.7024 8.61931 11.9526C7.36907 13.2029 6.66669 14.8986 6.66669 16.6667V63.3333C6.66669 65.1014 7.36907 66.7971 8.61931 68.0474C9.86955 69.2976 11.5652 70 13.3334 70H66.6667C68.4348 70 70.1305 69.2976 71.3807 68.0474C72.631 66.7971 73.3334 65.1014 73.3334 63.3333Z" stroke="black" stroke-width="2" stroke-linecap="round" stroke-linejoin="round"/>
<path d="M40 46.6667H30M40 36.6667V46.6667V36.6667ZM40 46.6667V56.6667V46.6667ZM40 46.6667H50H40Z" stroke="black" stroke-width="2" stroke-linecap="round"/>
</svg>
