<svg width="73" height="65" viewBox="0 0 73 65" fill="none" xmlns="http://www.w3.org/2000/svg">
<g clip-path="url(#clip0_17_3)">
<path d="M60.0061 21.0463C59.2294 20.7798 58.4461 20.533 57.657 20.3059C57.7896 19.7643 57.9116 19.2292 58.0199 18.7035C59.7983 10.0707 58.6357 3.11601 54.6647 0.826188C50.8574 -1.36899 44.6308 0.919982 38.3423 6.39281C37.7225 6.93315 37.1165 7.48906 36.5249 8.06C36.1288 7.68034 35.7257 7.30805 35.3158 6.94332C28.7252 1.0916 22.1191 -1.37469 18.1524 0.921692C14.3485 3.12371 13.2221 9.66163 14.8231 17.8431C14.9824 18.6534 15.1623 19.4595 15.3625 20.2606C14.4274 20.5263 13.5251 20.8091 12.6616 21.1102C4.93458 23.8043 0 28.0261 0 32.4054C0 36.9283 5.2975 41.4649 13.3455 44.2157C13.998 44.4378 14.6559 44.6436 15.3186 44.8329C15.1034 45.6958 14.9123 46.5645 14.7456 47.438C13.2192 55.4775 14.4112 61.8609 18.2048 64.049C22.1231 66.3086 28.6995 63.9862 35.1028 58.3885C35.6221 57.9335 36.1299 57.4655 36.6258 56.9851C37.2665 57.6033 37.9244 58.2035 38.5986 58.7851C44.8015 64.1225 50.9275 66.2778 54.7175 64.0837C58.632 61.8176 59.9043 54.9601 58.2525 46.617C58.1224 45.9634 57.9765 45.313 57.8149 44.6664C58.2768 44.5296 58.7301 44.3887 59.172 44.2422C67.5387 41.4703 72.9825 36.9887 72.9825 32.4054C72.9825 28.0102 67.8885 23.7598 60.0061 21.0463V21.0463ZM58.1915 41.283C57.7924 41.415 57.383 41.5424 56.9657 41.6664C56.042 38.7423 54.7956 35.6331 53.2701 32.4205C54.7257 29.2845 55.9242 26.215 56.822 23.3099C57.5686 23.526 58.293 23.7538 58.9915 23.9941C65.7452 26.3193 69.8647 29.7566 69.8647 32.4054C69.8647 35.2266 65.4157 38.8891 58.1915 41.283V41.283ZM55.1941 47.2225C55.9245 50.9115 56.0286 54.2471 55.5448 56.8548C55.1103 59.1979 54.2362 60.7599 53.1552 61.3857C50.8554 62.717 45.9368 60.9865 40.6321 56.4217C40.005 55.881 39.3931 55.323 38.797 54.7483C40.8536 52.4992 42.9088 49.8847 44.9147 46.9808C48.443 46.6677 51.7762 46.1557 54.799 45.457C54.9446 46.0423 55.0763 46.631 55.1941 47.2225V47.2225ZM24.8813 61.1556C22.6343 61.949 20.8445 61.9718 19.7626 61.348C17.4605 60.0204 16.5034 54.8948 17.8089 48.0196C17.964 47.2072 18.1417 46.3992 18.3417 45.5967C21.3311 46.2581 24.6401 46.7336 28.1766 47.0204C30.1962 49.8618 32.3107 52.4735 34.4417 54.7605C33.9889 55.1987 33.5253 55.6257 33.0514 56.0411C30.2196 58.5163 27.3821 60.2724 24.8813 61.1556V61.1556ZM14.3542 41.2656C10.7954 40.0491 7.85645 38.4683 5.84202 36.7433C4.03171 35.1932 3.118 33.654 3.118 32.4054C3.118 29.7478 7.07987 26.3581 13.6879 24.0543C14.4899 23.7749 15.3292 23.5112 16.2001 23.2637C17.1135 26.2343 18.3115 29.3404 19.7571 32.4812C18.2927 35.6685 17.0776 38.8241 16.1553 41.8298C15.5504 41.6565 14.9498 41.4684 14.3542 41.2656V41.2656ZM17.883 17.2441C16.5114 10.2347 17.4223 4.94713 19.7147 3.62005C22.1562 2.20658 27.5552 4.22187 33.2458 9.27476C33.6169 9.605 33.9819 9.94194 34.3408 10.2854C32.2203 12.5624 30.1252 15.1547 28.1236 17.9793C24.6912 18.2975 21.4055 18.8084 18.3847 19.4929C18.1986 18.7477 18.0313 17.998 17.883 17.2444V17.2441ZM49.3644 25.0179C48.6509 23.7854 47.9109 22.5685 47.145 21.3679C49.4735 21.6624 51.7046 22.0532 53.7998 22.5311C53.1709 24.5472 52.3869 26.6549 51.464 28.8158C50.7895 27.536 50.0895 26.2698 49.3644 25.0179V25.0179ZM36.5263 12.5136C37.9643 14.0716 39.4045 15.811 40.8211 17.6983C37.9475 17.5625 35.069 17.562 32.1952 17.6965C33.6133 15.8266 35.0658 14.0896 36.5263 12.5136ZM23.6058 25.0393C22.8898 26.2811 22.2028 27.5394 21.5455 28.8133C20.6378 26.66 19.8609 24.5426 19.2266 22.498C21.3089 22.0322 23.5294 21.6513 25.8432 21.3622C25.0687 22.5701 24.3227 23.796 23.6058 25.039V25.0393ZM25.9096 43.6703C23.5192 43.4035 21.2653 43.0423 19.1836 42.589C19.8279 40.5078 20.6218 38.3454 21.5492 36.146C22.2091 37.4208 22.899 38.6799 23.6181 39.9223C24.3576 41.1995 25.1234 42.4504 25.9096 43.6703ZM36.6124 52.5166C35.1345 50.9224 33.6606 49.1585 32.2212 47.2616C33.6187 47.3163 35.0433 47.3442 36.4912 47.3442C37.9788 47.3442 39.4493 47.3109 40.8967 47.2465C39.4755 49.1776 38.0407 50.944 36.6124 52.5166ZM51.4934 36.0337C52.469 38.2574 53.2912 40.4083 53.944 42.4538C51.8281 42.9368 49.5434 43.3256 47.1361 43.6144C47.9075 42.3916 48.6545 41.1535 49.3766 39.9009C50.1108 38.6277 50.8166 37.3383 51.4934 36.0337V36.0337ZM46.676 38.3432C45.5705 40.2636 44.4028 42.1476 43.1748 43.9922C40.9504 44.1497 38.7212 44.228 36.4912 44.2268C34.2199 44.2268 32.0108 44.1561 29.8835 44.0181C28.6234 42.1778 27.4335 40.2905 26.3162 38.3603H26.3164C25.2044 36.4402 24.1656 34.4786 23.2024 32.4798C24.1632 30.4804 25.1988 28.5179 26.307 26.5964L26.3068 26.5967C27.4146 24.6747 28.5951 22.7955 29.8455 20.9631C32.0159 20.7989 34.2416 20.7133 36.4909 20.7133H36.4912C38.7508 20.7133 40.9794 20.7997 43.1492 20.9651C44.387 22.7947 45.5599 24.6675 46.6657 26.5799C47.7777 28.4971 48.827 30.4501 49.812 32.4356C48.8371 34.4414 47.7911 36.4118 46.676 38.3432V38.3432ZM53.1076 3.52711C55.5513 4.93658 56.5018 10.6204 54.9663 18.074C54.8683 18.5495 54.7582 19.0339 54.6385 19.5251C51.6103 18.8261 48.3224 18.3063 44.8799 17.9833C42.8746 15.1276 40.7966 12.5313 38.7106 10.2837C39.2573 9.75671 39.817 9.24339 40.3892 8.74422C45.7774 4.05538 50.8132 2.20402 53.1076 3.52711V3.52711ZM36.4912 25.8882C40.0905 25.8882 43.0083 28.8061 43.0083 32.4054C43.0083 36.0046 40.0905 38.9225 36.4912 38.9225C32.892 38.9225 29.9741 36.0046 29.9741 32.4054C29.9741 28.8061 32.892 25.8882 36.4912 25.8882V25.8882Z" fill="#00D8FF"/>
</g>
<defs>
<clipPath id="clip0_17_3">
<rect width="72.9825" height="65" fill="white"/>
</clipPath>
</defs>
</svg>
