<svg width="27" height="35" viewBox="0 0 27 35" fill="none" xmlns="http://www.w3.org/2000/svg">
<path fill-rule="evenodd" clip-rule="evenodd" d="M0.375 33.9062V4.375C0.375 3.21468 0.835936 2.10188 1.65641 1.28141C2.47688 0.460936 3.58968 0 4.75 0L22.25 0C23.4103 0 24.5231 0.460936 25.3436 1.28141C26.1641 2.10188 26.625 3.21468 26.625 4.375V33.9062C26.6251 34.0962 26.5758 34.2829 26.4819 34.448C26.388 34.613 26.2527 34.7508 26.0893 34.8477C25.9259 34.9446 25.7402 34.9973 25.5503 35.0006C25.3604 35.0039 25.1729 34.9577 25.0063 34.8666L13.5 28.5884L1.99375 34.8666C1.82713 34.9577 1.63963 35.0039 1.44973 35.0006C1.25982 34.9973 1.07405 34.9446 0.910701 34.8477C0.747349 34.7508 0.612048 34.613 0.518116 34.448C0.424185 34.2829 0.374861 34.0962 0.375 33.9062ZM19.7431 12.8056C19.9485 12.6002 20.0639 12.3217 20.0639 12.0312C20.0639 11.7408 19.9485 11.4623 19.7431 11.2569C19.5377 11.0515 19.2592 10.9361 18.9688 10.9361C18.6783 10.9361 18.3998 11.0515 18.1944 11.2569L12.4062 17.0472L9.89937 14.5381C9.79768 14.4364 9.67696 14.3558 9.54409 14.3007C9.41122 14.2457 9.26882 14.2174 9.125 14.2174C8.98118 14.2174 8.83878 14.2457 8.70591 14.3007C8.57304 14.3558 8.45232 14.4364 8.35063 14.5381C8.24893 14.6398 8.16827 14.7605 8.11323 14.8934C8.0582 15.0263 8.02987 15.1687 8.02987 15.3125C8.02987 15.4563 8.0582 15.5987 8.11323 15.7316C8.16827 15.8645 8.24893 15.9852 8.35063 16.0869L11.6319 19.3681C11.7335 19.47 11.8542 19.5508 11.9871 19.6059C12.1199 19.6611 12.2624 19.6895 12.4062 19.6895C12.5501 19.6895 12.6926 19.6611 12.8254 19.6059C12.9583 19.5508 13.079 19.47 13.1806 19.3681L19.7431 12.8056Z" fill="#5162FF"/>
</svg>
