<svg width="8" height="30" viewBox="0 0 8 30" fill="none" xmlns="http://www.w3.org/2000/svg">
<path d="M0.390623 26.2617V25.4649C0.408201 25.4004 0.437498 25.3418 0.449217 25.2774C0.707029 23.6016 2.10156 22.2774 3.7363 22.1661C5.56442 22.0372 7.1113 23.0801 7.6152 24.7793C7.67966 25.002 7.72653 25.2363 7.78512 25.4649V26.2617C7.76755 26.3145 7.73825 26.3613 7.73239 26.4199C7.48044 27.9668 6.36716 29.1445 4.84372 29.4785C4.72653 29.5019 4.60934 29.5371 4.49216 29.5664H3.69528C3.64255 29.5488 3.58981 29.5195 3.53708 29.5137C2.01364 29.2676 0.853514 28.1836 0.501922 26.6777C0.466766 26.5312 0.425751 26.3965 0.390594 26.2617H0.390623ZM7.78515 3.73837L7.78512 4.5353C7.76755 4.59975 7.73825 4.65835 7.73239 4.7228C7.46872 6.4103 6.06833 7.72866 4.41598 7.83413C2.59372 7.95131 1.0527 6.89663 0.554656 5.19155C0.490203 4.97472 0.443329 4.7521 0.390594 4.53527V3.7384C0.408173 3.68566 0.437469 3.63879 0.449188 3.58605C0.730438 2.06262 1.6152 1.06652 3.09177 0.591915C3.28512 0.527462 3.4902 0.492306 3.68942 0.439571H4.4863C4.53903 0.457149 4.59177 0.486446 4.6445 0.492306C6.1738 0.744259 7.32809 1.82238 7.67966 3.32824C7.71484 3.46887 7.75 3.60363 7.78515 3.73837ZM7.78512 14.6017V15.3985C7.76755 15.463 7.73825 15.5216 7.72653 15.586C7.46286 17.2677 6.00973 18.6212 4.36911 18.6915C2.52341 18.7735 0.958954 17.6603 0.519501 15.9435C0.472626 15.7618 0.43161 15.5802 0.390594 15.3985V14.6017C0.408173 14.5372 0.437469 14.4786 0.449188 14.4142C0.707001 12.7325 2.16598 11.379 3.80661 11.3028C5.65231 11.215 7.21677 12.3341 7.65622 14.0509C7.70309 14.2384 7.74411 14.42 7.78512 14.6017V14.6017Z" fill="#BCBCBC"/>
</svg>
