<svg width="75" height="76" viewBox="0 0 75 76" fill="none" xmlns="http://www.w3.org/2000/svg">
<path d="M37.5 19C35.1822 19 32.9165 19.6965 30.9894 21.0013C29.0623 22.3061 27.5602 24.1608 26.6733 26.3306C25.7863 28.5005 25.5542 30.8882 26.0064 33.1917C26.4586 35.4952 27.5747 37.6111 29.2136 39.2719C30.8525 40.9326 32.9406 42.0636 35.2138 42.5218C37.487 42.98 39.8433 42.7449 41.9846 41.8461C44.1259 40.9473 45.9561 39.4252 47.2438 37.4724C48.5315 35.5196 49.2188 33.2237 49.2188 30.875C49.2188 27.7256 47.9841 24.7051 45.7864 22.4781C43.5887 20.2511 40.608 19 37.5 19Z" fill="#A3A3A3"/>
<path d="M37.1875 4.75C30.7596 4.75 24.4761 6.65609 19.1315 10.2272C13.7869 13.7984 9.62126 18.8742 7.16141 24.8128C4.70157 30.7514 4.05796 37.286 5.31198 43.5904C6.566 49.8948 9.66132 55.6857 14.2065 60.231C18.7517 64.7762 24.5427 67.8715 30.8471 69.1255C37.1514 70.3795 43.6861 69.7359 49.6247 67.2761C55.5633 64.8162 60.6391 60.6506 64.2103 55.306C67.7814 49.9614 69.6875 43.6779 69.6875 37.25C69.6777 28.6335 66.2504 20.3727 60.1576 14.2799C54.0648 8.18708 45.804 4.75983 37.1875 4.75ZM55.7403 57.9711C55.6941 54.9261 54.4535 52.0212 52.2859 49.8822C50.1182 47.7433 47.1971 46.5414 44.1518 46.5357H30.2232C27.1779 46.5414 24.2568 47.7433 22.0891 49.8822C19.9215 52.0212 18.6809 54.9261 18.6346 57.9711C14.4249 54.2121 11.4562 49.2631 10.1216 43.7794C8.787 38.2957 9.14951 32.536 11.1611 27.2629C13.1727 21.9898 16.7385 17.4521 21.3864 14.2506C26.0342 11.0491 31.5449 9.33488 37.1887 9.33488C42.8324 9.33488 48.3431 11.0491 52.9909 14.2506C57.6388 17.4521 61.2046 21.9898 63.2162 27.2629C65.2278 32.536 65.5903 38.2957 64.2557 43.7794C62.9211 49.2631 59.9524 54.2121 55.7427 57.9711H55.7403Z" fill="#A3A3A3"/>
</svg>
