<svg width="65" height="65" viewBox="0 0 65 65" fill="none" xmlns="http://www.w3.org/2000/svg">
<path d="M32.5 0C23.9126 0.103604 15.7062 3.56096 9.63358 9.63358C3.56096 15.7062 0.103604 23.9126 0 32.5C0.103604 41.0874 3.56096 49.2938 9.63358 55.3664C15.7062 61.439 23.9126 64.8964 32.5 65C41.0874 64.8964 49.2938 61.439 55.3664 55.3664C61.439 49.2938 64.8964 41.0874 65 32.5C64.8964 23.9126 61.439 15.7062 55.3664 9.63358C49.2938 3.56096 41.0874 0.103604 32.5 0ZM51.0714 34.8214H34.8214V51.0714H30.1786V34.8214H13.9286V30.1786H30.1786V13.9286H34.8214V30.1786H51.0714V34.8214Z" fill="#3E3AA9"/>
</svg>
